%TF.GenerationSoftware,KiCad,Pcbnew,10.0.4-1.fc44*%
%TF.CreationDate,2026-08-01T19:11:57+05:30*%
%TF.ProjectId,usb-to-uart-bridge,7573622d-746f-42d7-9561-72742d627269,rev?*%
%TF.SameCoordinates,Original*%
%TF.FileFunction,Soldermask,Top*%
%TF.FilePolarity,Negative*%
%FSLAX46Y46*%
G04 Gerber Fmt 4.6, Leading zero omitted, Abs format (unit mm)*
G04 Created by KiCad (PCBNEW 10.0.4-1.fc44) date 2026-08-01 19:11:57*
%MOMM*%
%LPD*%
G01*
G04 APERTURE LIST*
G04 Aperture macros list*
%AMRoundRect*
0 Rectangle with rounded corners*
0 $1 Rounding radius*
0 $2 $3 $4 $5 $6 $7 $8 $9 X,Y pos of 4 corners*
0 Add a 4 corners polygon primitive as box body*
4,1,4,$2,$3,$4,$5,$6,$7,$8,$9,$2,$3,0*
0 Add four circle primitives for the rounded corners*
1,1,$1+$1,$2,$3*
1,1,$1+$1,$4,$5*
1,1,$1+$1,$6,$7*
1,1,$1+$1,$8,$9*
0 Add four rect primitives between the rounded corners*
20,1,$1+$1,$2,$3,$4,$5,0*
20,1,$1+$1,$4,$5,$6,$7,0*
20,1,$1+$1,$6,$7,$8,$9,0*
20,1,$1+$1,$8,$9,$2,$3,0*%
G04 Aperture macros list end*
%ADD10RoundRect,0.160000X-0.197500X-0.160000X0.197500X-0.160000X0.197500X0.160000X-0.197500X0.160000X0*%
%ADD11RoundRect,0.140000X0.170000X-0.140000X0.170000X0.140000X-0.170000X0.140000X-0.170000X-0.140000X0*%
%ADD12R,1.700000X1.700000*%
%ADD13C,1.700000*%
%ADD14R,0.558800X0.304800*%
%ADD15C,0.650000*%
%ADD16RoundRect,0.150000X-0.575000X0.150000X-0.575000X-0.150000X0.575000X-0.150000X0.575000X0.150000X0*%
%ADD17RoundRect,0.075000X-0.650000X0.075000X-0.650000X-0.075000X0.650000X-0.075000X0.650000X0.075000X0*%
%ADD18O,2.100000X1.000000*%
%ADD19O,1.600000X1.000000*%
%ADD20RoundRect,0.140000X0.140000X0.170000X-0.140000X0.170000X-0.140000X-0.170000X0.140000X-0.170000X0*%
%ADD21RoundRect,0.062500X-0.337500X-0.062500X0.337500X-0.062500X0.337500X0.062500X-0.337500X0.062500X0*%
%ADD22RoundRect,0.062500X-0.062500X-0.337500X0.062500X-0.337500X0.062500X0.337500X-0.062500X0.337500X0*%
%ADD23RoundRect,0.190500X-0.444500X-0.444500X0.444500X-0.444500X0.444500X0.444500X-0.444500X0.444500X0*%
%ADD24R,3.350000X3.350000*%
G04 APERTURE END LIST*
D10*
%TO.C,R2*%
X124037500Y-94385000D03*
X125232500Y-94385000D03*
%TD*%
%TO.C,R1*%
X124037500Y-81545000D03*
X125232500Y-81545000D03*
%TD*%
D11*
%TO.C,C4*%
X133935000Y-89910000D03*
X133935000Y-88950000D03*
%TD*%
D12*
%TO.C,J2*%
X147865000Y-82920000D03*
D13*
X147865000Y-85460000D03*
X147865000Y-88000000D03*
X147865000Y-90540000D03*
X147865000Y-93080000D03*
%TD*%
D14*
%TO.C,CR3*%
X129304197Y-86838496D03*
X129304197Y-87498896D03*
%TD*%
%TO.C,CR2*%
X129293200Y-89225001D03*
X129293200Y-88564601D03*
%TD*%
D15*
%TO.C,J1*%
X125600000Y-85110000D03*
X125600000Y-90890000D03*
D16*
X127045000Y-84750000D03*
X127045000Y-85550000D03*
D17*
X127045000Y-86750000D03*
X127045000Y-87750000D03*
X127045000Y-88250000D03*
X127045000Y-89250000D03*
D16*
X127045000Y-90450000D03*
X127045000Y-91250000D03*
X127045000Y-91250000D03*
X127045000Y-90450000D03*
D17*
X127045000Y-89750000D03*
X127045000Y-88750000D03*
X127045000Y-87250000D03*
X127045000Y-86250000D03*
D16*
X127045000Y-85550000D03*
X127045000Y-84750000D03*
D18*
X126130000Y-83680000D03*
D19*
X121950000Y-83680000D03*
D18*
X126130000Y-92320000D03*
D19*
X121950000Y-92320000D03*
%TD*%
D20*
%TO.C,C2*%
X138500000Y-92780000D03*
X137540000Y-92780000D03*
%TD*%
D14*
%TO.C,CR1*%
X129293200Y-84759400D03*
X129293200Y-85419800D03*
%TD*%
D11*
%TO.C,C3*%
X135160000Y-89890000D03*
X135160000Y-88930000D03*
%TD*%
D20*
%TO.C,C1*%
X138510000Y-91650000D03*
X137550000Y-91650000D03*
%TD*%
D21*
%TO.C,U1*%
X137550000Y-86280000D03*
X137550000Y-86780000D03*
X137550000Y-87280000D03*
X137550000Y-87780000D03*
X137550000Y-88280000D03*
X137550000Y-88780000D03*
X137550000Y-89280000D03*
D22*
X138500000Y-90230000D03*
X139000000Y-90230000D03*
X139500000Y-90230000D03*
X140000000Y-90230000D03*
X140500000Y-90230000D03*
X141000000Y-90230000D03*
X141500000Y-90230000D03*
D21*
X142450000Y-89280000D03*
X142450000Y-88780000D03*
X142450000Y-88280000D03*
X142450000Y-87780000D03*
X142450000Y-87280000D03*
X142450000Y-86780000D03*
X142450000Y-86280000D03*
D22*
X141500000Y-85330000D03*
X141000000Y-85330000D03*
X140500000Y-85330000D03*
X140000000Y-85330000D03*
X139500000Y-85330000D03*
X139000000Y-85330000D03*
X138500000Y-85330000D03*
D23*
X138950000Y-86780000D03*
X139000000Y-88830000D03*
X140000000Y-87730000D03*
D24*
X140000000Y-87780000D03*
D23*
X140950000Y-88780000D03*
X141050000Y-86780000D03*
%TD*%
M02*
